<mxfile host="app.diagrams.net" agent="Mozilla/5.0 (Windows NT 10.0; Win64; x64) AppleWebKit/537.36 (KHTML, like Gecko) Chrome/133.0.0.0 Safari/537.36" version="26.0.14">
  <diagram name="Página-1" id="nl6OW6EDBM1qFWCO8okx">
    <mxGraphModel dx="1509" dy="766" grid="1" gridSize="10" guides="1" tooltips="1" connect="1" arrows="1" fold="1" page="1" pageScale="1" pageWidth="827" pageHeight="1169" math="0" shadow="0">
      <root>
        <mxCell id="0" />
        <mxCell id="1" parent="0" />
        <mxCell id="8WvLHLONmkhXWQbiGcSa-35" style="edgeStyle=orthogonalEdgeStyle;rounded=0;orthogonalLoop=1;jettySize=auto;html=1;entryX=0;entryY=0.5;entryDx=0;entryDy=0;" edge="1" parent="1" source="8WvLHLONmkhXWQbiGcSa-1" target="8WvLHLONmkhXWQbiGcSa-32">
          <mxGeometry relative="1" as="geometry" />
        </mxCell>
        <mxCell id="8WvLHLONmkhXWQbiGcSa-36" style="edgeStyle=orthogonalEdgeStyle;rounded=0;orthogonalLoop=1;jettySize=auto;html=1;entryX=0;entryY=0.5;entryDx=0;entryDy=0;" edge="1" parent="1" source="8WvLHLONmkhXWQbiGcSa-1" target="8WvLHLONmkhXWQbiGcSa-31">
          <mxGeometry relative="1" as="geometry" />
        </mxCell>
        <mxCell id="8WvLHLONmkhXWQbiGcSa-37" style="edgeStyle=orthogonalEdgeStyle;rounded=0;orthogonalLoop=1;jettySize=auto;html=1;entryX=0;entryY=0.5;entryDx=0;entryDy=0;" edge="1" parent="1" source="8WvLHLONmkhXWQbiGcSa-1" target="8WvLHLONmkhXWQbiGcSa-30">
          <mxGeometry relative="1" as="geometry" />
        </mxCell>
        <mxCell id="8WvLHLONmkhXWQbiGcSa-1" value="cliente" style="shape=umlActor;verticalLabelPosition=bottom;verticalAlign=top;html=1;" vertex="1" parent="1">
          <mxGeometry x="20" y="455" width="30" height="60" as="geometry" />
        </mxCell>
        <mxCell id="8WvLHLONmkhXWQbiGcSa-45" style="edgeStyle=orthogonalEdgeStyle;rounded=0;orthogonalLoop=1;jettySize=auto;html=1;entryX=1;entryY=0.5;entryDx=0;entryDy=0;" edge="1" parent="1" source="8WvLHLONmkhXWQbiGcSa-2" target="8WvLHLONmkhXWQbiGcSa-28">
          <mxGeometry relative="1" as="geometry" />
        </mxCell>
        <mxCell id="8WvLHLONmkhXWQbiGcSa-2" value="banco" style="shape=umlActor;verticalLabelPosition=bottom;verticalAlign=top;html=1;" vertex="1" parent="1">
          <mxGeometry x="780" y="455" width="30" height="60" as="geometry" />
        </mxCell>
        <mxCell id="8WvLHLONmkhXWQbiGcSa-18" value="Sistema de Cajero Automático (ATM)" style="text;strokeColor=none;fillColor=none;html=1;fontSize=24;fontStyle=1;verticalAlign=middle;align=center;" vertex="1" parent="1">
          <mxGeometry x="390" y="60" width="100" height="40" as="geometry" />
        </mxCell>
        <mxCell id="8WvLHLONmkhXWQbiGcSa-33" value="ATM" style="swimlane;whiteSpace=wrap;html=1;" vertex="1" parent="1">
          <mxGeometry x="194" y="240" width="440" height="490" as="geometry" />
        </mxCell>
        <mxCell id="8WvLHLONmkhXWQbiGcSa-32" value="01_Consultar saldo" style="ellipse;whiteSpace=wrap;html=1;" vertex="1" parent="8WvLHLONmkhXWQbiGcSa-33">
          <mxGeometry x="16" y="130" width="114" height="40" as="geometry" />
        </mxCell>
        <mxCell id="8WvLHLONmkhXWQbiGcSa-31" value="02_Retirar dinero" style="ellipse;whiteSpace=wrap;html=1;" vertex="1" parent="8WvLHLONmkhXWQbiGcSa-33">
          <mxGeometry x="16" y="230" width="104" height="30" as="geometry" />
        </mxCell>
        <mxCell id="8WvLHLONmkhXWQbiGcSa-30" value="03_Depositar dinero" style="ellipse;whiteSpace=wrap;html=1;" vertex="1" parent="8WvLHLONmkhXWQbiGcSa-33">
          <mxGeometry x="16" y="310" width="114" height="30" as="geometry" />
        </mxCell>
        <mxCell id="8WvLHLONmkhXWQbiGcSa-28" value="01.1_Validar tarjeta" style="ellipse;whiteSpace=wrap;html=1;" vertex="1" parent="8WvLHLONmkhXWQbiGcSa-33">
          <mxGeometry x="272" y="80" width="114" height="20" as="geometry" />
        </mxCell>
        <mxCell id="8WvLHLONmkhXWQbiGcSa-44" value="&amp;lt;&amp;lt;include&amp;gt;&amp;gt;" style="endArrow=open;endSize=12;dashed=1;html=1;rounded=0;curved=0;entryX=0;entryY=0.5;entryDx=0;entryDy=0;exitX=1;exitY=0.5;exitDx=0;exitDy=0;" edge="1" parent="8WvLHLONmkhXWQbiGcSa-33" source="8WvLHLONmkhXWQbiGcSa-30" target="8WvLHLONmkhXWQbiGcSa-28">
          <mxGeometry width="160" relative="1" as="geometry">
            <mxPoint x="-134" y="570" as="sourcePoint" />
            <mxPoint x="26" y="570" as="targetPoint" />
          </mxGeometry>
        </mxCell>
        <mxCell id="8WvLHLONmkhXWQbiGcSa-43" value="&amp;lt;&amp;lt;include&amp;gt;&amp;gt;" style="endArrow=open;endSize=12;dashed=1;html=1;rounded=0;curved=0;exitX=1;exitY=0.5;exitDx=0;exitDy=0;entryX=0;entryY=0.5;entryDx=0;entryDy=0;" edge="1" parent="8WvLHLONmkhXWQbiGcSa-33" source="8WvLHLONmkhXWQbiGcSa-31" target="8WvLHLONmkhXWQbiGcSa-28">
          <mxGeometry width="160" relative="1" as="geometry">
            <mxPoint x="46" y="570" as="sourcePoint" />
            <mxPoint x="236" y="430" as="targetPoint" />
          </mxGeometry>
        </mxCell>
        <mxCell id="8WvLHLONmkhXWQbiGcSa-42" value="&amp;lt;&amp;lt;include&amp;gt;&amp;gt;" style="endArrow=open;endSize=12;dashed=1;html=1;rounded=0;curved=0;exitX=1;exitY=0.5;exitDx=0;exitDy=0;entryX=0;entryY=0.5;entryDx=0;entryDy=0;" edge="1" parent="8WvLHLONmkhXWQbiGcSa-33" source="8WvLHLONmkhXWQbiGcSa-32" target="8WvLHLONmkhXWQbiGcSa-28">
          <mxGeometry width="160" relative="1" as="geometry">
            <mxPoint x="-184" y="390" as="sourcePoint" />
            <mxPoint x="216" y="240" as="targetPoint" />
          </mxGeometry>
        </mxCell>
        <mxCell id="8WvLHLONmkhXWQbiGcSa-47" value="&quot;saldo insuficiente&quot;" style="ellipse;whiteSpace=wrap;html=1;" vertex="1" parent="8WvLHLONmkhXWQbiGcSa-33">
          <mxGeometry x="266" y="440" width="120" height="30" as="geometry" />
        </mxCell>
        <mxCell id="8WvLHLONmkhXWQbiGcSa-48" value="&amp;lt;&amp;lt;extend&amp;gt;&amp;gt;" style="endArrow=block;dashed=1;endFill=0;endSize=12;html=1;rounded=0;entryX=0;entryY=0.5;entryDx=0;entryDy=0;exitX=1;exitY=0.5;exitDx=0;exitDy=0;" edge="1" parent="8WvLHLONmkhXWQbiGcSa-33" source="8WvLHLONmkhXWQbiGcSa-31" target="8WvLHLONmkhXWQbiGcSa-47">
          <mxGeometry width="160" relative="1" as="geometry">
            <mxPoint x="46" y="540" as="sourcePoint" />
            <mxPoint x="206" y="540" as="targetPoint" />
          </mxGeometry>
        </mxCell>
        <mxCell id="8WvLHLONmkhXWQbiGcSa-46" value="&amp;lt;&amp;lt;extend&amp;gt;&amp;gt;" style="endArrow=block;dashed=1;endFill=0;endSize=12;html=1;rounded=0;entryX=0;entryY=0.5;entryDx=0;entryDy=0;exitX=1;exitY=0.5;exitDx=0;exitDy=0;" edge="1" parent="8WvLHLONmkhXWQbiGcSa-33" source="8WvLHLONmkhXWQbiGcSa-32" target="8WvLHLONmkhXWQbiGcSa-47">
          <mxGeometry width="160" relative="1" as="geometry">
            <mxPoint x="36" y="530" as="sourcePoint" />
            <mxPoint x="196" y="530" as="targetPoint" />
          </mxGeometry>
        </mxCell>
      </root>
    </mxGraphModel>
  </diagram>
</mxfile>
